<svg xmlns="http://www.w3.org/2000/svg" viewBox="0 0 391.12 357.24"><title>logo-square-black</title><g id="059f512f-c2ec-4a00-a3d6-f08eb38d85ce" data-name="Text"><path d="M26.93,327.8q-10.77-3.09-15.67-7.6a14.53,14.53,0,0,1-4.9-11.14,15.36,15.36,0,0,1,6-12.4q6-4.91,15.58-4.9a26,26,0,0,1,11.66,2.53,19.21,19.21,0,0,1,7.93,7A17.85,17.85,0,0,1,50.33,311H41.92a11.61,11.61,0,0,0-3.66-9.08q-3.66-3.3-10.33-3.3-6.19,0-9.65,2.73a9.1,9.1,0,0,0-3.47,7.57,8.18,8.18,0,0,0,3.29,6.57c2.2,1.8,5.93,3.43,11.2,4.92a52,52,0,0,1,12.38,4.9,18.74,18.74,0,0,1,6.62,6.26A15.92,15.92,0,0,1,50.46,340a14.81,14.81,0,0,1-6,12.35q-6,4.65-16.08,4.64a29.87,29.87,0,0,1-12.21-2.5,20.47,20.47,0,0,1-8.73-6.87,16.72,16.72,0,0,1-3.08-9.89h8.41A11,11,0,0,0,17,346.78q4.26,3.33,11.36,3.33,6.61,0,10.15-2.7A8.79,8.79,0,0,0,42.05,340a8.62,8.62,0,0,0-3.27-7.21Q35.51,330.28,26.93,327.8Z" transform="translate(-4.35 -17.89)"/><path d="M73.08,334.25,68,339.52v16.56H60V289.14H68v40.49l4.32-5.19L87,308.93h9.81l-18.35,19.7L99,356.08H89.51Z" transform="translate(-4.35 -17.89)"/><path d="M120.58,344.27l11-35.34h8.63l-19,54.43q-4.4,11.76-14,11.77l-1.52-.14-3-.56v-6.54l2.18.18a10.73,10.73,0,0,0,6.38-1.66c1.53-1.11,2.79-3.12,3.77-6.06l1.79-4.79L100,308.93h8.8Z" transform="translate(-4.35 -17.89)"/><path d="M156.14,356.08h-8.06V289.14h8.06Z" transform="translate(-4.35 -17.89)"/><path d="M198.15,356.08a16.41,16.41,0,0,1-1.13-5A18,18,0,0,1,183.59,357,16.64,16.64,0,0,1,172.15,353a12.77,12.77,0,0,1-4.46-10,13.32,13.32,0,0,1,5.6-11.44q5.6-4.08,15.75-4.08h7.84v-3.7a9.06,9.06,0,0,0-2.52-6.73c-1.69-1.67-4.17-2.51-7.46-2.51a11.78,11.78,0,0,0-7.23,2.18,6.41,6.41,0,0,0-2.92,5.27h-8.1a11.14,11.14,0,0,1,2.5-6.82A17.17,17.17,0,0,1,178,310a23,23,0,0,1,9.43-1.91q8.16,0,12.77,4.07t4.8,11.22v21.71a26.58,26.58,0,0,0,1.65,10.32v.7Zm-13.38-6.14a14.24,14.24,0,0,0,7.19-2,11.82,11.82,0,0,0,4.92-5.1V333.2h-6.31q-14.82,0-14.82,8.68a7.32,7.32,0,0,0,2.53,5.92A9.72,9.72,0,0,0,184.77,349.94Z" transform="translate(-4.35 -17.89)"/><path d="M240.38,316.16a24.64,24.64,0,0,0-4-.3q-7.93,0-10.76,6.75v33.47h-8.07V308.93h7.85l.13,5.45a12.53,12.53,0,0,1,11.24-6.32,8.24,8.24,0,0,1,3.58.61Z" transform="translate(-4.35 -17.89)"/><path d="M261,334.25l-5.06,5.27v16.56h-8.06V289.14h8.06v40.49l4.31-5.19,14.69-15.51h9.81l-18.35,19.7,20.48,27.45h-9.45Z" transform="translate(-4.35 -17.89)"/><path d="M340.56,329.11a34.24,34.24,0,0,1-2.94,14.57,22.53,22.53,0,0,1-8.39,9.81A22.86,22.86,0,0,1,316.68,357q-10.71,0-17.34-7.62t-6.63-20.57v-9.15a34.17,34.17,0,0,1,3-14.56,22.44,22.44,0,0,1,8.41-9.83,23,23,0,0,1,33.53,9.85,34.09,34.09,0,0,1,3,14.54Zm-2.35-9.59q0-11.5-5.84-18.46t-15.78-6.95q-9.79,0-15.64,6.91t-5.84,18.8v9.29a32.14,32.14,0,0,0,2.64,13.4,20.26,20.26,0,0,0,7.51,8.95,20.68,20.68,0,0,0,11.42,3.14q9.94,0,15.73-6.93t5.8-18.91Z" transform="translate(-4.35 -17.89)"/><path d="M393.08,340.87a12,12,0,0,0-1.9-6.86,16,16,0,0,0-6-5,64.21,64.21,0,0,0-12.31-4.42A58,58,0,0,1,360.54,320a16.41,16.41,0,0,1-6-5.36,13.62,13.62,0,0,1-1.92-7.41,13.31,13.31,0,0,1,5.84-11.22q5.83-4.29,15.21-4.29a24.67,24.67,0,0,1,11,2.37,17.65,17.65,0,0,1,10.18,16.37h-2.36a15,15,0,0,0-5.23-11.75q-5.22-4.63-13.55-4.64t-13.53,3.73q-5.16,3.72-5.17,9.35a11.08,11.08,0,0,0,4.49,9.19q4.49,3.5,14.82,6.17t15.12,6.21a14.17,14.17,0,0,1,6.1,12,13.94,13.94,0,0,1-2.7,8.47A17.21,17.21,0,0,1,385.1,355a29.51,29.51,0,0,1-11.16,2,32,32,0,0,1-12.37-2.28,16.8,16.8,0,0,1-11-16.5h2.36q0,7.8,5.84,12.12t15.2,4.31q8.32,0,13.73-3.81A11.67,11.67,0,0,0,393.08,340.87Z" transform="translate(-4.35 -17.89)"/></g><g id="093762be-73cd-42e6-93d9-3173ee461b92" data-name="Icon"><path id="34c584fc-f2af-4d0f-bc6e-37cd6cb97910" data-name="Body" d="M255.9,123c9.93-1.72,26.32-3.94,39.66,4.41,11.15,7,8.23,13.76,22,22,7.05,4.22,13.38,5.8,13.22,8.81s-7.07,3.32-13.22,8.82c-6.54,5.85-7.88,13.81-8.81,17.62-5.92,24.19-40.45,63.66-74.91,66.1-7.3.51-7.65-1.31-13.22,0-18.58,4.36-21.28,25.38-39.66,30.84-2.58.77-3,.55-17.62,0-43.33-1.63-60.65.25-61.69-4.4-.21-.94.3-1.89,8.81-8.82,14.9-12.12,19.73-14.84,26.44-22,3.8-4.07,10.81-11.59,8.81-17.62-1.67-5-8.46-5.55-17.62-8.82-23.93-8.52-42.46-28.12-39.66-35.25.94-2.39,3.69-1.9,4.4-4.4,1.59-5.55-11.36-9.75-17.62-22-5.55-10.9-4.13-24.82,0-26.44,3.23-1.25,8.33,4.92,8.81,4.41s-9.19-8-13.22-17.62c-2.55-6.11-2.86-13.28,4.41-35.26,9.59-29,15.88-48.07,26.44-48.47,6.76-.25,12.12,7.27,13.22,8.82,8,11.22.17,21,4.4,35.25,2.58,8.68,12,16.07,30.85,30.84,14.94,11.72,22.67,17.67,35.25,22,6,2.09,17,5.63,30.84,4.41C234.65,134.58,236.24,126.39,255.9,123Z" transform="translate(-4.35 -17.89)"/><path id="556bc478-cbf2-43d8-8bb2-91362d5687fe" data-name="Wing" d="M242.63,119c-7.51-4.4,20.5-44.35,6.66-64.3-3.35-4.83-18.11-21.35-17.62-26.44.08-.86.59-6.18,4.4-8.81,9.19-6.35,29.22,8.69,35.25,13.22a108.4,108.4,0,0,1,24.57,24.82,102.13,102.13,0,0,1,10.69,19.24c11.52,27.73,7.63,55.73,5.71,55.92-.35,0-.52-.85-2.43-2.81a35.62,35.62,0,0,0-3.16-2.7,61.92,61.92,0,0,0-9.86-6.81c-5.08-2.73-9.5-3.44-14.84-4.3a73.86,73.86,0,0,0-16.05-.69,102.81,102.81,0,0,0-11.23,1.45C244.35,118.53,243.83,119.68,242.63,119Z" transform="translate(-4.35 -17.89)"/></g></svg>