<?xml version="1.0" encoding="utf-8"?>
<!-- Generator: Adobe Illustrator 22.1.0, SVG Export Plug-In . SVG Version: 6.00 Build 0)  -->
<svg version="1.1" id="Layer_1" xmlns="http://www.w3.org/2000/svg" xmlns:xlink="http://www.w3.org/1999/xlink" x="0px" y="0px"
	 viewBox="0 0 128 128" style="enable-background:new 0 0 128 128;" xml:space="preserve">
<g id="_x30_93762be-73cd-42e6-93d9-3173ee461b92">
	<path id="_x33_4c584fc-f2af-4d0f-bc6e-37cd6cb97910" d="M91.1,50.8c4.8-0.8,12.7-1.9,19.1,2.1c5.4,3.4,4,6.6,10.6,10.6
		c3.4,2,6.5,2.8,6.4,4.2c-0.1,1.5-3.4,1.6-6.4,4.3c-3.2,2.8-3.8,6.7-4.2,8.5c-2.9,11.7-19.5,30.7-36.1,31.9c-3.5,0.2-3.7-0.6-6.4,0
		c-9,2.1-10.3,12.2-19.1,14.9c-1.2,0.4-1.4,0.3-8.5,0c-20.9-0.8-29.3,0.1-29.8-2.1c-0.1-0.5,0.1-0.9,4.2-4.3
		c7.2-5.8,9.5-7.2,12.8-10.6c1.8-2,5.2-5.6,4.2-8.5c-0.8-2.4-4.1-2.7-8.5-4.3C17.9,93.4,8.9,84,10.3,80.5c0.5-1.2,1.8-0.9,2.1-2.1
		c0.8-2.7-5.5-4.7-8.5-10.6c-2.7-5.3-2-12,0-12.8c1.6-0.6,4,2.4,4.2,2.1s-4.4-3.9-6.4-8.5c-1.2-2.9-1.4-6.4,2.1-17
		c4.6-14,7.7-23.2,12.8-23.4c3.3-0.1,5.8,3.5,6.4,4.3c3.9,5.4,0.1,10.1,2.1,17c1.2,4.2,5.8,7.8,14.9,14.9c7.2,5.7,10.9,8.5,17,10.6
		c2.9,1,8.2,2.7,14.9,2.1C80.8,56.3,81.6,52.4,91.1,50.8z"/>
	<path id="_x35_56bc478-cbf2-43d8-8bb2-91362d5687fe" d="M84.7,48.8c-3.6-2.1,9.9-21.4,3.2-31c-1.6-2.3-8.7-10.3-8.5-12.8
		c0-0.4,0.3-3,2.1-4.2c4.4-3.1,14.1,4.2,17,6.4c4.6,3.3,8.6,7.4,11.9,12c2,2.9,3.8,6,5.2,9.3c5.6,13.4,3.7,26.9,2.8,27
		c-0.2,0-0.3-0.4-1.2-1.4c-0.5-0.5-1-0.9-1.5-1.3c-1.5-1.2-3.1-2.3-4.8-3.3c-2.5-1.3-4.6-1.7-7.2-2.1c-2.6-0.4-5.2-0.5-7.7-0.3
		c-1.8,0.1-3.6,0.4-5.4,0.7C85.5,48.6,85.3,49.2,84.7,48.8z"/>
</g>
</svg>
